<svg width="220" height="56" viewBox="0 0 220 56" fill="none" xmlns="http://www.w3.org/2000/svg">
  <defs>
    <linearGradient id="g" x1="6" y1="8" x2="46" y2="48" gradientUnits="userSpaceOnUse"><stop stop-color="#F3FFB8"/><stop offset=".45" stop-color="#C7FF4F"/><stop offset="1" stop-color="#7BE8FF"/></linearGradient>
  </defs>
  <rect x="2" y="2" width="52" height="52" rx="16" fill="#11141B" stroke="#2A303C"/>
  <path d="M17 30.8c0-6.9 5.4-12.8 12.2-12.8h3.6C39.6 18 45 23.9 45 30.8c0 4.4-2.9 7.2-6.2 7.2-2.2 0-3.9-1.2-5.4-3.2h-3.6c-1.5 2-3.2 3.2-5.4 3.2-3.3 0-7.4-2.8-7.4-7.2Z" fill="url(#g)"/>
  <path d="M22 29h7M25.5 25.5v7" stroke="#0A0C0A" stroke-width="2.2" stroke-linecap="round"/>
  <circle cx="37" cy="27" r="1.8" fill="#0A0C0A"/><circle cx="41" cy="30.5" r="1.8" fill="#0A0C0A"/>
  <path d="M61 19.5h4.3v17H61z" fill="#C7FF4F"/>
  <text x="72" y="27" fill="#F5F7FB" font-family="Arial, sans-serif" font-size="14" font-weight="800" letter-spacing="1.7">GOOMII</text>
  <text x="72" y="42" fill="#8D95A5" font-family="Arial, sans-serif" font-size="10" font-weight="700" letter-spacing="3.2">GAMES</text>
</svg>
